<?xml version="1.0" standalone="no"?>
<!DOCTYPE svg PUBLIC "-//W3C//DTD SVG 20010904//EN"
 "http://www.w3.org/TR/2001/REC-SVG-20010904/DTD/svg10.dtd">
<svg version="1.0" xmlns="http://www.w3.org/2000/svg"
 width="80.000000pt" height="80.000000pt" viewBox="0 0 80.000000 80.000000"
 preserveAspectRatio="xMidYMid meet">
<metadata>
Created by potrace 1.11, written by Peter Selinger 2001-2013
</metadata>
<g transform="translate(0.000000,80.000000) scale(0.100000,-0.100000)"
fill="#000000" stroke="none">
<path d="M0 650 c0 -110 3 -150 12 -150 9 0 9 -3 0 -12 -8 -8 -12 -52 -12
-133 l0 -121 63 -60 c78 -75 163 -145 195 -161 13 -7 37 -13 54 -13 l29 0 -62
73 c-34 39 -68 73 -76 75 -7 2 -13 8 -13 13 0 5 -22 25 -50 46 -27 20 -47 40
-42 43 4 4 38 15 76 25 91 24 121 53 130 128 9 70 25 77 74 32 48 -43 75 -53
132 -50 51 2 184 56 217 88 19 20 21 27 13 69 -7 36 -6 56 5 82 25 58 15 65
-92 70 -23 1 -29 4 -21 13 6 8 6 18 -1 30 -7 15 -5 22 10 31 10 7 27 12 36 12
10 0 25 5 33 10 10 7 -17 10 -85 9 -94 0 -98 -1 -72 -15 34 -18 34 -28 2 -42
-38 -17 -49 -15 -125 23 l-70 35 -180 0 -180 0 0 -150z m732 -3 c-7 -8 -10
-17 -7 -21 3 -3 0 -2 -7 3 -8 8 -8 14 2 26 7 8 15 13 18 10 3 -2 0 -11 -6 -18z
m-402 -8 c0 -6 -5 -20 -12 -32 -18 -33 -19 -49 -1 -43 9 4 13 1 11 -6 -5 -14
-39 -24 -37 -11 4 23 -6 31 -56 42 -51 12 -67 31 -26 31 10 0 34 7 52 15 41
17 69 19 69 4z m391 -80 c12 -23 -8 -59 -33 -59 -10 0 -18 -7 -18 -16 0 -10
-7 -14 -23 -12 -13 1 -32 -5 -41 -15 -21 -21 -36 -22 -36 -2 0 8 4 15 8 15 5
0 14 16 22 35 14 35 34 50 52 38 7 -4 8 -1 4 6 -10 15 23 41 41 34 8 -3 18
-14 24 -24z m-624 -85 c-3 -3 -12 -4 -19 -1 -8 3 -5 6 6 6 11 1 17 -2 13 -5z
m-42 -14 c-3 -5 -14 -10 -23 -9 -14 0 -13 2 3 9 27 11 27 11 20 0z m185 -65
c0 -8 -4 -15 -10 -15 -5 0 -10 -7 -10 -15 0 -8 -4 -15 -10 -15 -5 0 -10 -7
-10 -16 0 -13 -7 -15 -30 -10 -22 4 -30 2 -30 -9 0 -16 -35 -21 -45 -6 -3 6 3
14 12 20 10 6 14 11 9 11 -5 0 3 12 18 26 21 22 28 24 41 14 8 -7 16 -10 16
-6 1 3 3 11 4 16 1 6 3 12 4 15 3 13 41 3 41 -10z"/>
<path d="M160 349 c0 -5 5 -7 10 -4 6 3 10 8 10 11 0 2 -4 4 -10 4 -5 0 -10
-5 -10 -11z"/>
<path d="M792 343 c-1 -7 -7 -12 -13 -10 -6 1 -13 -7 -15 -18 -16 -108 -81
-245 -130 -274 -52 -31 -42 -41 41 -41 73 0 76 1 86 28 5 15 16 41 25 57 12
23 14 57 12 150 -2 66 -5 114 -6 108z"/>
<path d="M466 325 c-11 -8 -16 -21 -13 -30 6 -15 26 -21 28 -7 0 4 2 17 5 30
5 26 5 26 -20 7z"/>
<path d="M421 262 c-9 -13 -23 -16 -52 -14 -21 2 -42 8 -45 13 -13 22 -31 7
-31 -25 0 -26 6 -37 24 -45 13 -6 23 -7 23 -1 0 5 21 10 48 12 43 3 47 5 47
28 0 14 4 28 9 31 4 4 4 9 -1 12 -5 3 -15 -2 -22 -11z"/>
<path d="M505 199 c-69 -34 -89 -39 -147 -39 -62 0 -87 -10 -55 -23 31 -12
182 23 198 46 3 4 12 10 20 12 39 9 58 18 63 31 3 8 4 14 3 13 -1 0 -38 -18
-82 -40z"/>
<path d="M222 175 c-11 -12 -10 -15 3 -15 8 0 15 7 15 15 0 18 -2 18 -18 0z"/>
<path d="M452 104 c-29 -12 -32 -16 -29 -56 2 -44 18 -57 53 -44 8 3 17 4 20
3 11 -4 35 54 30 71 -10 31 -39 41 -74 26z"/>
</g>
</svg>
